<?xml version="1.0" encoding="UTF-8" standalone="no"?>
<svg
    xmlns="http://www.w3.org/2000/svg"
    width="274"
    height="84"
    preserveAspectRatio="xMidYMid"
    version="1"
    viewBox="0 0 205.5 63"
    zoomAndPan="magnify"
>
    <defs>
    <filter id="c99781bce7" width="1" height="1" x="0" y="0">
        <feColorMatrix values="0 0 0 0 1 0 0 0 0 1 0 0 0 0 1 0 0 0 1 0"></feColorMatrix>
    </filter>
    <clipPath>
        <path d="M107.57 206.05h254.25v29.25H107.57zm0 0"></path>
    </clipPath>
    <clipPath>
        <path d="M361.71 220.676c0 .238-.054.476-.155.719a2.814 2.814 0 01-.457.714 5.016 5.016 0 01-.762.711 9.43 9.43 0 01-1.066.707c-.407.235-.864.47-1.368.703-.504.23-1.058.461-1.664.692a44.36 44.36 0 01-1.953.68 60.1 60.1 0 01-2.246.671c-.793.22-1.637.438-2.523.657-.891.215-1.825.43-2.805.64-.98.211-2.004.418-3.074.625a198.947 198.947 0 01-6.922 1.192c-1.238.191-2.52.383-3.836.566-1.32.184-2.676.367-4.074.543-1.395.18-2.828.352-4.297.52-1.469.171-2.977.336-4.516.496a523.17 523.17 0 01-9.637.91 594.487 594.487 0 01-10.363.797 655.299 655.299 0 01-10.992.676 780.37 780.37 0 01-11.516.55 907.907 907.907 0 01-11.925.418 1039.791 1039.791 0 01-12.227.277 965.615 965.615 0 01-12.407.141c-2.073.012-4.152.02-6.23.02-2.078 0-4.156-.008-6.234-.02-2.074-.011-4.149-.027-6.215-.05-2.07-.024-4.133-.055-6.187-.09a1049.557 1049.557 0 01-12.227-.278c-2.016-.058-4.02-.125-6.008-.191a905.1 905.1 0 01-5.918-.227 777.607 777.607 0 01-11.516-.55 655.296 655.296 0 01-10.992-.676 594.432 594.432 0 01-10.367-.797 523.134 523.134 0 01-9.633-.91c-1.539-.16-3.046-.325-4.515-.496-1.469-.168-2.903-.34-4.297-.52a311.54 311.54 0 01-4.074-.543 261.81 261.81 0 01-3.836-.566 210.732 210.732 0 01-3.59-.586 207.08 207.08 0 01-3.336-.606c-1.066-.207-2.09-.414-3.07-.625-.98-.21-1.914-.425-2.805-.64a95.978 95.978 0 01-2.523-.657 57.712 57.712 0 01-2.247-.671 46.012 46.012 0 01-1.953-.68c-.605-.23-1.16-.461-1.664-.692-.504-.234-.96-.468-1.367-.703a9.18 9.18 0 01-1.066-.707 5.015 5.015 0 01-.762-.71 2.814 2.814 0 01-.457-.715 1.782 1.782 0 01-.156-.72c0-.238.05-.48.156-.718.101-.238.254-.477.457-.715s.457-.476.762-.715c.304-.234.66-.472 1.066-.707.406-.234.863-.465 1.367-.699.504-.23 1.059-.46 1.664-.691.602-.23 1.254-.457 1.953-.684a72.72 72.72 0 014.77-1.324 109.8 109.8 0 012.805-.64 155.967 155.967 0 016.406-1.231c1.156-.2 2.351-.395 3.59-.59a310.551 310.551 0 0112.207-1.629c1.469-.168 2.976-.332 4.515-.492a523.134 523.134 0 019.633-.91 541.53 541.53 0 015.098-.414 770.46 770.46 0 015.27-.387 887.299 887.299 0 0110.992-.676c1.879-.101 3.777-.2 5.699-.289 1.918-.094 3.86-.18 5.816-.258a907.91 907.91 0 0111.926-.418c2.02-.058 4.047-.11 6.082-.156 2.04-.047 4.09-.09 6.145-.125a1162.215 1162.215 0 0112.402-.141c2.078-.011 4.156-.015 6.234-.015 2.078 0 4.157.004 6.23.015a1164.092 1164.092 0 0112.407.141c2.055.035 4.105.078 6.14.125a1017.03 1017.03 0 0112.094.348c1.989.07 3.961.144 5.918.226 1.957.078 3.895.164 5.817.258a779.7 779.7 0 0116.691.965c1.785.125 3.54.254 5.27.387 1.726.132 3.425.27 5.093.414a523.17 523.17 0 019.637.91c1.54.16 3.047.324 4.516.492a325.501 325.501 0 0112.207 1.629c1.238.195 2.433.39 3.59.59a150.902 150.902 0 016.406 1.23c.98.211 1.914.426 2.805.64a72.72 72.72 0 014.77 1.325c.698.227 1.35.453 1.952.684.606.23 1.16.46 1.664.691.504.234.961.465 1.368.7.406.234.757.472 1.066.706.305.239.559.477.762.715.203.238.355.477.457.715.101.238.156.48.156.719zm0 0"></path>
    </clipPath>
    <image
        width="255"
        height="30"
        x="0"
        y="0"
        preserveAspectRatio="xMidYMid"
    ></image>
    <mask id="25f798038c">
        <g filter="url(#c99781bce7)">
        <g>
            <image
            width="255"
            height="30"
            x="0"
            y="0"
            preserveAspectRatio="xMidYMid"
            ></image>
        </g>
        </g>
    </mask>
    <radialGradient
        id="dd81f50b2d"
        cx="71.041"
        cy="8.274"
        r="56.437"
        fx="71.041"
        fy="8.274"
        gradientTransform="matrix(1.78789 0 0 -.21211 .681 17.08)"
        gradientUnits="userSpaceOnUse"
    >
        <stop offset="0"></stop>
        <stop offset="0.016"></stop>
        <stop offset="0.027"></stop>
        <stop offset="0.039"></stop>
        <stop offset="0.051"></stop>
        <stop offset="0.063"></stop>
        <stop offset="0.074"></stop>
        <stop offset="0.086"></stop>
        <stop offset="0.098"></stop>
        <stop offset="0.109"></stop>
        <stop offset="0.121"></stop>
        <stop offset="0.133"></stop>
        <stop offset="0.145"></stop>
        <stop offset="0.156"></stop>
        <stop offset="0.168"></stop>
        <stop offset="0.18"></stop>
        <stop offset="0.191"></stop>
        <stop offset="0.203"></stop>
        <stop offset="0.215"></stop>
        <stop offset="0.227"></stop>
        <stop offset="0.238"></stop>
        <stop offset="0.25"></stop>
        <stop offset="0.262"></stop>
        <stop offset="0.27"></stop>
        <stop offset="0.277"></stop>
        <stop offset="0.285"></stop>
        <stop offset="0.293"></stop>
        <stop offset="0.301"></stop>
        <stop offset="0.309"></stop>
        <stop offset="0.316"></stop>
        <stop offset="0.324"></stop>
        <stop offset="0.332"></stop>
        <stop offset="0.34"></stop>
        <stop offset="0.348"></stop>
        <stop offset="0.355"></stop>
        <stop offset="0.363"></stop>
        <stop offset="0.371"></stop>
        <stop offset="0.379"></stop>
        <stop offset="0.395"></stop>
        <stop offset="0.41"></stop>
        <stop offset="0.426"></stop>
        <stop offset="0.441"></stop>
        <stop offset="0.457"></stop>
        <stop offset="0.473"></stop>
        <stop offset="0.488"></stop>
        <stop offset="0.504"></stop>
        <stop offset="0.516"></stop>
        <stop offset="0.527"></stop>
        <stop offset="0.539"></stop>
        <stop offset="0.551"></stop>
        <stop offset="0.563"></stop>
        <stop offset="0.574"></stop>
        <stop offset="0.586"></stop>
        <stop offset="0.598"></stop>
        <stop offset="0.609"></stop>
        <stop offset="0.621"></stop>
        <stop offset="0.633"></stop>
        <stop offset="0.641"></stop>
        <stop offset="0.648"></stop>
        <stop offset="0.656"></stop>
        <stop offset="0.664"></stop>
        <stop offset="0.672"></stop>
        <stop offset="0.68"></stop>
        <stop offset="0.688"></stop>
        <stop offset="0.695"></stop>
        <stop offset="0.711"></stop>
        <stop offset="0.727"></stop>
        <stop offset="0.742"></stop>
        <stop offset="0.758"></stop>
        <stop offset="0.77"></stop>
        <stop offset="0.781"></stop>
        <stop offset="0.793"></stop>
        <stop offset="0.805"></stop>
        <stop offset="0.816"></stop>
        <stop offset="0.824"></stop>
        <stop offset="0.832"></stop>
        <stop offset="0.84"></stop>
        <stop offset="0.848"></stop>
        <stop offset="0.863"></stop>
        <stop offset="0.879"></stop>
        <stop offset="0.891"></stop>
        <stop offset="0.902"></stop>
        <stop offset="0.914"></stop>
        <stop offset="0.922"></stop>
        <stop offset="0.93"></stop>
        <stop offset="0.945"></stop>
        <stop offset="0.957"></stop>
        <stop offset="0.965"></stop>
        <stop offset="0.98"></stop>
        <stop offset="0.988"></stop>
        <stop offset="1"></stop>
    </radialGradient>
    <clipPath>
        <path d="M0 0h255v30H0z"></path>
    </clipPath>
    <pattern
        width="255"
        height="30"
        x="0"
        y="0"
        patternTransform="matrix(1 0 0 -1 107 236.04)"
        patternUnits="userSpaceOnUse"
        preserveAspectRatio="xMidYMid meet"
        viewBox="0 0 255 30"
    >
        <g>
        <g>
            <g mask="url(#25f798038c)">
            <path
                fill="url(#dd81f50b2d)"
                d="M-189.5-221.46h540v540h-540z"
            ></path>
            </g>
        </g>
        </g>
    </pattern>
    <clipPath>
        <path d="M90.102 145.32H144v60.75H90.102zm0 0"></path>
    </clipPath>
    <clipPath>
        <path d="M103 167h47.852v24H103zm0 0"></path>
    </clipPath>
    </defs>
    <g fill="#737373" transform="translate(-97.5 -144)">
    <g transform="translate(163.43 178.078)">
        <g>
        <path d="M1.484 0H6.61v-7.031h7.88v-3.824H6.61v-3.739h9.207v-4.355H1.484zm0 0"></path>
        </g>
    </g>
    </g>
    <g fill="#737373" transform="translate(-97.5 -144)">
    <g transform="translate(179.908 178.078)">
        <g>
        <path d="M3.61-15.258c1.511 0 2.6-1.035 2.6-2.496 0-1.46-1.089-2.492-2.6-2.492-1.489 0-2.575 1.031-2.575 2.492s1.086 2.496 2.574 2.496zM1.327 0H5.89v-13.64H1.328zm0 0"></path>
        </g>
    </g>
    </g>
    <g fill="#737373" transform="translate(-97.5 -144)">
    <g transform="translate(187.126 178.078)">
        <g>
        <path d="M1.273 0H5.84v-7.59c0-1.512 1.008-2.601 2.332-2.601 1.355 0 2.203 1.117 2.203 2.656V0h4.566v-8.438c0-3.21-1.964-5.546-4.804-5.546-1.778 0-3.024.847-4.086 2.574H5.84v-2.23H1.273zm0 0"></path>
        </g>
    </g>
    </g>
    <g fill="#737373" transform="translate(-97.5 -144)">
    <g transform="translate(203.18 178.078)">
        <g>
        <path d="M6.82.293c.848 0 2.043-.16 2.89-.48v-3.13a6.31 6.31 0 01-1.378.16c-1.008 0-1.672-.718-1.672-1.831v-5.414h2.973v-3.239H6.66v-4.191H3.05l-.769 4.191H.293v3.239h1.805v5.625C2.098-1.75 3.98.293 6.82.293zm0 0"></path>
        </g>
    </g>
    </g>
    <g fill="#737373" transform="translate(-97.5 -144)">
    <g transform="translate(213.397 178.078)">
        <g>
        <path d="M8.281.344c3.477 0 6.367-1.723 7.031-4.352l-3.98-.554c-.398 1.058-1.46 1.828-2.812 1.828-1.754 0-2.946-1.141-3.211-2.864h10.43c.023-.215.05-.851.05-1.168 0-4.406-2.945-7.218-7.457-7.218C3.82-13.984.609-11.2.609-6.848.61-2.468 3.742.344 8.281.344zM5.254-7.961c.238-1.777 1.355-2.945 3-2.945 1.672 0 2.89 1.328 2.973 2.945zm0 0"></path>
        </g>
    </g>
    </g>
    <g fill="#737373" transform="translate(-97.5 -144)">
    <g transform="translate(229.77 178.078)">
        <g>
        <path d="M8.227.344c3.82 0 6.609-1.961 7.085-5.305l-4.195-.531c-.289 1.3-1.484 2.203-2.836 2.203-1.804 0-3.105-1.488-3.105-3.531s1.3-3.555 3.105-3.555c1.324 0 2.547.953 2.836 2.281l4.195-.531c-.453-3.371-3.265-5.36-7.085-5.36-4.563 0-7.59 2.758-7.618 7.165C.637-2.47 3.742.344 8.227.344zm0 0"></path>
        </g>
    </g>
    </g>
    <g fill="#737373" transform="translate(-97.5 -144)">
    <g transform="translate(245.69 178.078)">
        <g>
        <path d="M1.3 0h4.54v-7.59c0-1.512 1.008-2.601 2.332-2.601 1.355 0 2.23 1.09 2.23 2.656V0h4.54v-8.465c0-3.21-1.965-5.52-4.805-5.52-1.75 0-3.024.848-4.059 2.547H5.84v-8.304H1.3zm0 0"></path>
        </g>
    </g>
    </g>
    <g fill="#737373" transform="translate(-97.5 -144)">
    <g transform="translate(164.899 200.9)">
        <g>
        <path d="M1.152 0h2.016v-3.855H5.84c2.797 0 4.398-1.52 4.398-3.743.016-2.207-1.582-3.73-4.383-3.73H1.152zm2.016-5.36v-4.464h2.48c1.68 0 2.575.93 2.575 2.226 0 1.328-.895 2.239-2.575 2.239zm0 0"></path>
        </g>
    </g>
    </g>
    <g fill="#737373" transform="translate(-97.5 -144)">
    <g transform="translate(175.696 200.9)">
        <g>
        <path d="M1.04 0h1.823v-11.805H1.04zm0 0"></path>
        </g>
    </g>
    </g>
    <g fill="#737373" transform="translate(-97.5 -144)">
    <g transform="translate(179.6 200.9)">
        <g>
        <path d="M3.2.258c1.265 0 2.398-.516 2.929-1.524h.11V0h1.824v-5.313c0-1.789-1.458-3.007-3.551-3.007C2.367-8.32.91-7.137.91-5.422h1.762c0-.992.75-1.68 1.824-1.68 1.04 0 1.742.72 1.742 1.727v.434l-2.015.316C1.664-4.223.527-3.375.527-1.918.527-.543 1.602.258 3.2.258zM3.84-.93c-.977 0-1.55-.43-1.55-1.132 0-.754.573-1.25 2.046-1.504l1.902-.32v.702c0 1.297-.96 2.254-2.398 2.254zm0 0"></path>
        </g>
    </g>
    </g>
    <g fill="#737373" transform="translate(-97.5 -144)">
    <g transform="translate(188.59 200.9)">
        <g>
        <path d="M1.055 0h1.808v-4.672c0-1.262.93-2.16 2.114-2.16 1.199 0 1.933.93 1.933 2.242V0h1.824v-4.91c0-2-1.23-3.473-3.086-3.473-1.168 0-2.082.594-2.656 1.649h-.129v-1.391H1.055zm0 0"></path>
        </g>
    </g>
    </g>
    <g fill="#737373" transform="translate(-97.5 -144)">
    <g transform="translate(198.251 200.9)">
        <g>
        <path d="M2.016-9.438c.656 0 1.136-.449 1.136-1.09 0-.64-.48-1.085-1.136-1.085-.641 0-1.121.445-1.121 1.086 0 .64.48 1.09 1.12 1.09zM1.106 0h1.82v-8.125h-1.82zm0 0"></path>
        </g>
    </g>
    </g>
    <g fill="#737373" transform="translate(-97.5 -144)">
    <g transform="translate(202.282 200.9)">
        <g>
        <path d="M1.71 0h1.81v-6.781h1.968v-1.344H3.52v-1.281c0-.754.464-1.106 1.12-1.106.27 0 .688.051.942.13v-1.473a5.802 5.802 0 00-1.504-.207c-1.406 0-2.367.976-2.367 2.656v1.281H.465v1.344H1.71zm0 0"></path>
        </g>
    </g>
    </g>
    <g fill="#737373" transform="translate(-97.5 -144)">
    <g transform="translate(208.233 200.9)">
        <g>
        <path d="M2.016-9.438c.656 0 1.136-.449 1.136-1.09 0-.64-.48-1.085-1.136-1.085-.641 0-1.121.445-1.121 1.086 0 .64.48 1.09 1.12 1.09zM1.106 0h1.82v-8.125h-1.82zm0 0"></path>
        </g>
    </g>
    </g>
    <g fill="#737373" transform="translate(-97.5 -144)">
    <g transform="translate(212.264 200.9)">
        <g>
        <path d="M4.96.258C7.056.258 8.688-.91 9.009-2.72l-1.68-.226C7.07-1.953 6.094-1.23 4.977-1.23c-1.504 0-2.594-1.184-2.594-2.833 0-1.648 1.09-2.832 2.594-2.832 1.101 0 2.093.735 2.351 1.774l1.68-.223C8.703-7.199 7.055-8.383 4.96-8.383c-2.594 0-4.387 1.727-4.387 4.32C.56-1.502 2.398.258 4.961.258zm0 0"></path>
        </g>
    </g>
    </g>
    <g fill="#737373" transform="translate(-97.5 -144)">
    <g transform="translate(221.845 200.9)">
        <g>
        <path d="M3.2.258c1.265 0 2.398-.516 2.929-1.524h.11V0h1.824v-5.313c0-1.789-1.458-3.007-3.551-3.007C2.367-8.32.91-7.137.91-5.422h1.762c0-.992.75-1.68 1.824-1.68 1.04 0 1.742.72 1.742 1.727v.434l-2.015.316C1.664-4.223.527-3.375.527-1.918.527-.543 1.602.258 3.2.258zM3.84-.93c-.977 0-1.55-.43-1.55-1.132 0-.754.573-1.25 2.046-1.504l1.902-.32v.702c0 1.297-.96 2.254-2.398 2.254zm0 0"></path>
        </g>
    </g>
    </g>
    <g fill="#737373" transform="translate(-97.5 -144)">
    <g transform="translate(234.77 200.9)">
        <g>
        <path d="M3.969.176c.46 0 1.07-.078 1.488-.223v-1.328a4.06 4.06 0 01-.96.129c-.673 0-1.106-.496-1.106-1.234l-.016-4.301h1.969v-1.344H3.375l.016-2.496H1.918l-.285 2.496H.32v1.344h1.246v4.367c0 1.55.946 2.59 2.403 2.59zm0 0"></path>
        </g>
    </g>
    </g>
    <g fill="#737373" transform="translate(-97.5 -144)">
    <g transform="translate(240.657 200.9)">
        <g>
        <path d="M4 .258c1.168 0 2.078-.594 2.656-1.649h.125V0h1.824v-8.125H6.781v4.652c0 1.266-.926 2.176-2.093 2.176-1.2 0-1.954-.926-1.954-2.238v-4.59H.91v4.895C.91-1.215 2.145.258 4 .258zm0 0"></path>
        </g>
    </g>
    </g>
    <g fill="#737373" transform="translate(-97.5 -144)">
    <g transform="translate(254.254 200.9)">
        <g>
        <path d="M1.71 0h1.81v-6.781h1.968v-1.344H3.52v-1.281c0-.754.464-1.106 1.12-1.106.27 0 .688.051.942.13v-1.473a5.802 5.802 0 00-1.504-.207c-1.406 0-2.367.976-2.367 2.656v1.281H.465v1.344H1.71zm0 0"></path>
        </g>
    </g>
    </g>
    <g fill="#737373" transform="translate(-97.5 -144)">
    <g transform="translate(260.204 200.9)">
        <g>
        <path d="M4 .258c1.168 0 2.078-.594 2.656-1.649h.125V0h1.824v-8.125H6.781v4.652c0 1.266-.926 2.176-2.093 2.176-1.2 0-1.954-.926-1.954-2.238v-4.59H.91v4.895C.91-1.215 2.145.258 4 .258zm0 0"></path>
        </g>
    </g>
    </g>
    <g fill="#737373" transform="translate(-97.5 -144)">
    <g transform="translate(269.866 200.9)">
        <g>
        <path d="M3.969.176c.46 0 1.07-.078 1.488-.223v-1.328a4.06 4.06 0 01-.96.129c-.673 0-1.106-.496-1.106-1.234l-.016-4.301h1.969v-1.344H3.375l.016-2.496H1.918l-.285 2.496H.32v1.344h1.246v4.367c0 1.55.946 2.59 2.403 2.59zm0 0"></path>
        </g>
    </g>
    </g>
    <g fill="#737373" transform="translate(-97.5 -144)">
    <g transform="translate(275.752 200.9)">
        <g>
        <path d="M4 .258c1.168 0 2.078-.594 2.656-1.649h.125V0h1.824v-8.125H6.781v4.652c0 1.266-.926 2.176-2.093 2.176-1.2 0-1.954-.926-1.954-2.238v-4.59H.91v4.895C.91-1.215 2.145.258 4 .258zm0 0"></path>
        </g>
    </g>
    </g>
    <g fill="#737373" transform="translate(-97.5 -144)">
    <g transform="translate(285.414 200.9)">
        <g>
        <path d="M1.055 0h1.808v-4.27c0-1.472.754-2.449 1.903-2.449.402 0 .898.114 1.343.336v-1.68a2.652 2.652 0 00-1.07-.222c-.976 0-1.664.558-2.047 1.484h-.129v-1.324H1.055zm0 0"></path>
        </g>
    </g>
    </g>
    <g fill="#737373" transform="translate(-97.5 -144)">
    <g transform="translate(291.893 200.9)">
        <g>
        <path d="M4.977.258c2.636 0 4.43-1.715 4.43-4.32 0-2.61-1.794-4.32-4.43-4.32-2.641 0-4.418 1.694-4.418 4.32 0 2.605 1.793 4.32 4.418 4.32zm0-1.555c-1.52 0-2.61-1.152-2.61-2.766 0-1.617 1.09-2.769 2.61-2.769 1.535 0 2.62 1.152 2.62 2.77 0 1.613-1.085 2.765-2.62 2.765zm0 0"></path>
        </g>
    </g>
    </g>
    <path
    fill="#ff914d"
    d="M54.254 51.367c-4.68 4.172-10.836 6.715-17.61 6.715-8.054 0-15.28-3.613-20.124-9.285 4.23 4.016 9.93 6.476 16.218 6.476 4.793 0 9.262-1.445 12.98-3.906zm0 0"
    ></path>
    <g transform="translate(-88.5 -144)">
    <path
        fill="#ff914d"
        d="M97.902 175.695c0-14.988 12.149-27.136 27.137-27.136 7.227 0 13.809 2.836 18.68 7.441-5.567-6.559-13.864-10.707-23.149-10.707-16.78 0-30.375 13.598-30.375 30.375 0 16.781 13.594 30.375 30.375 30.375 9.258 0 17.555-4.148 23.149-10.703-4.871 4.601-11.426 7.437-18.68 7.437-14.988 0-27.137-12.148-27.137-27.136zm0 0"
    ></path>
    </g>
    <g transform="translate(-88.5 -144)">
    <path
        fill="#ff914d"
        d="M124.559 177.621l5.832 7.656 17.21-12.175 1.204 1.578 1.953-6.72-7.012.056 1.152 1.472-13.785 10.196-5.699-7.36-22.133 18.063c.27.402-.293-.375 0 0l21.25-12.79zm0 0"
    ></path>
    </g>
    <path
    fill="#ff914d"
    d="M45.773 12.027a23.458 23.458 0 00-12.98-3.91c-6.29 0-11.988 2.465-16.219 6.477A26.329 26.329 0 0136.7 5.309c6.77 0 12.926 2.543 17.61 6.718zm0 0"
    ></path>
    <path
    fill="#c9caca"
    d="M28.215 25.914H17.19v16.809l11.024-8.993zm0 0"
    ></path>
    <path
    fill="#c9caca"
    d="M26.102 41.145c-2.97 1.792-5.942 3.585-8.91 5.378v1.07l.265.266a22.211 22.211 0 0010.758 5.649V39.91c-.695.43-1.418.86-2.113 1.285zm0 0"
    ></path>
    <path
    fill="#8b8b8c"
    d="M30.195 38.68v15.093c.86.11 1.715.16 2.598.16a22.31 22.31 0 008.457-1.656v-9.691l-5.516-7.223c-1.843 1.098-3.691 2.219-5.511 3.317zm0 0"
    ></path>
    <path
    fill="#8b8b8c"
    d="M30.195 32.125l6.961-5.703 4.067 5.273v-9.472H30.195zm0 0"
    ></path>
    <path
    fill="#5f5d5d"
    d="M43.23 18.61v14.96l11.024-8.164v-.508l-1.711-2.195 1.71-.027v-4.067zm0 0"
    ></path>
    <path
    fill="#5f5d5d"
    d="M54.254 34.133L43.23 41.945v9.395a24.95 24.95 0 001.82-1.07l.321-.215h8.883zm0 0"
    ></path>
</svg>
