<?xml version="1.0" standalone="no"?>
<!DOCTYPE svg PUBLIC "-//W3C//DTD SVG 20010904//EN"
 "http://www.w3.org/TR/2001/REC-SVG-20010904/DTD/svg10.dtd">
<svg version="1.0" xmlns="http://www.w3.org/2000/svg"
 width="700.000000pt" height="700.000000pt" viewBox="0 0 700.000000 700.000000"
 preserveAspectRatio="xMidYMid meet">
<metadata>
Created by potrace 1.14, written by Peter Selinger 2001-2017
</metadata>
<g transform="translate(0.000000,700.000000) scale(0.100000,-0.100000)"
fill="#000000" stroke="none">
<path d="M3417 6854 c-1 -1 -49 -4 -107 -8 -451 -29 -961 -180 -1365 -403
-744 -411 -1299 -1069 -1573 -1865 -57 -164 -119 -405 -137 -533 -2 -11 -8
-54 -14 -94 -33 -219 -37 -716 -7 -901 3 -14 9 -56 15 -95 14 -91 20 -122 31
-165 5 -19 12 -51 15 -70 22 -129 120 -421 211 -623 134 -302 374 -669 567
-872 195 -205 288 -290 438 -406 57 -44 112 -87 122 -95 9 -8 19 -14 22 -14 2
0 32 -20 67 -44 137 -95 359 -214 549 -294 120 -51 420 -152 495 -166 11 -2
49 -11 85 -19 84 -20 216 -43 292 -52 17 -2 58 -6 91 -10 32 -4 84 -9 115 -11
76 -6 414 -6 476 1 28 2 80 7 117 10 37 3 75 8 85 9 10 2 54 9 98 16 44 6 96
15 115 20 19 5 49 12 65 15 17 3 66 14 110 25 44 12 87 22 95 25 62 15 286 95
385 137 404 172 768 417 1065 717 69 69 134 137 145 151 l20 24 -30 -24 c-17
-14 -44 -37 -60 -51 -109 -97 -338 -257 -470 -330 -351 -193 -654 -295 -1085
-364 -166 -27 -686 -27 -790 0 -8 2 -42 7 -75 10 -32 4 -62 8 -65 10 -3 2 -23
6 -44 9 -250 40 -686 201 -906 335 -19 11 -42 24 -50 28 -54 24 -344 228 -396
277 -6 6 -40 36 -74 66 -229 198 -435 452 -619 758 -85 143 -225 466 -267 620
-34 121 -73 285 -79 329 -3 26 -8 49 -10 52 -1 3 -6 35 -10 71 -4 36 -9 74
-11 85 -22 110 -22 547 0 675 2 14 7 48 11 75 14 104 17 123 42 235 172 780
659 1472 1335 1899 415 261 853 406 1378 457 60 5 382 5 445 -1 28 -2 79 -7
115 -10 36 -3 72 -8 80 -10 8 -2 37 -6 64 -10 113 -14 284 -55 441 -105 190
-61 269 -93 460 -190 233 -118 457 -272 634 -434 l45 -41 -41 50 c-55 67 -241
250 -329 323 -388 323 -798 541 -1261 671 -112 31 -258 65 -328 75 -22 4 -65
11 -95 16 -53 9 -106 15 -235 26 -56 5 -403 12 -408 8z"/>
<path d="M3849 6406 c-2 -2 -31 -7 -64 -10 -33 -4 -77 -9 -98 -12 -20 -3 -47
-7 -60 -9 -161 -21 -391 -80 -562 -143 -423 -157 -783 -393 -1102 -722 -51
-52 -93 -99 -93 -104 0 -4 8 1 18 11 26 30 139 123 217 180 376 274 833 446
1300 490 144 14 470 7 590 -12 399 -64 689 -168 1005 -359 l85 -51 474 0 474
-1 -44 39 c-100 87 -410 307 -434 307 -4 0 -19 9 -34 19 -108 78 -547 257
-700 286 -13 2 -38 9 -55 14 -17 6 -48 12 -70 16 -21 3 -41 7 -45 9 -3 2 -55
11 -116 20 -60 8 -128 18 -150 21 -42 7 -530 16 -536 11z"/>
<path d="M4929 4932 l-125 -3 0 -825 c0 -677 2 -824 13 -820 7 3 88 61 179
128 91 68 223 166 294 218 70 52 233 173 362 267 383 283 373 275 376 306 3
22 -14 50 -84 140 -48 62 -92 118 -98 125 -8 11 -5 14 14 12 14 -1 58 -2 98
-1 l72 1 0 225 0 225 -52 0 c-313 3 -950 4 -1049 2z"/>
<path d="M3355 3987 c1 -453 3 -542 14 -539 8 2 39 24 70 50 30 26 64 54 76
64 271 221 335 273 371 305 12 10 39 32 60 48 21 17 70 56 108 87 39 32 73 58
76 57 3 0 105 -131 228 -291 l222 -290 0 526 0 526 -612 0 -613 0 0 -543z"/>
<path d="M6178 4330 l-36 -5 59 -74 c32 -40 59 -77 59 -82 0 -4 -18 -20 -40
-36 -23 -15 -49 -35 -59 -43 -11 -8 -117 -87 -236 -175 -119 -88 -276 -204
-349 -257 -72 -54 -142 -106 -155 -115 -13 -10 -81 -60 -150 -111 -69 -52
-166 -123 -216 -160 -49 -36 -140 -103 -201 -149 -62 -46 -114 -83 -117 -83
-3 0 -114 141 -247 313 -133 171 -249 321 -258 332 -10 12 -39 50 -66 85 -27
36 -53 69 -57 74 -7 8 -96 -62 -384 -299 -61 -49 -133 -108 -160 -130 -28 -21
-52 -42 -55 -45 -3 -3 -27 -23 -55 -45 -27 -22 -55 -44 -61 -50 -6 -5 -28 -23
-49 -40 -21 -16 -55 -44 -74 -61 -20 -16 -83 -68 -141 -115 -58 -46 -107 -86
-110 -89 -6 -6 -48 -40 -330 -269 -124 -101 -245 -199 -269 -219 -42 -35 -242
-198 -325 -265 -22 -18 -109 -90 -195 -160 -86 -71 -169 -140 -185 -153 -17
-13 -33 -24 -38 -24 -4 0 -8 -4 -8 -10 0 -5 30 9 68 32 67 41 1568 945 2017
1215 132 79 244 142 250 139 10 -3 69 -79 305 -391 25 -33 47 -62 50 -65 3 -3
18 -23 35 -45 16 -22 34 -45 40 -51 5 -7 55 -73 110 -147 55 -75 104 -136 108
-136 11 -1 28 10 497 343 217 154 463 327 545 385 83 58 155 109 160 114 6 4
105 74 220 156 116 81 271 191 346 244 75 53 141 97 145 97 5 0 36 -37 68 -81
33 -44 63 -76 67 -72 4 4 17 40 27 78 11 39 58 201 104 361 l85 292 -351 -2
c-193 0 -367 -3 -388 -6z"/>
<path d="M2063 4122 l-153 -3 0 -929 c0 -512 2 -930 4 -930 5 0 91 69 471 380
138 112 360 294 495 403 135 110 247 202 250 204 3 2 5 200 5 439 l0 434 -460
2 c-253 2 -529 2 -612 0z"/>
<path d="M5735 3000 c-154 -109 -307 -218 -340 -241 -33 -23 -180 -128 -326
-231 l-265 -189 0 -517 c1 -453 3 -517 16 -514 8 2 62 32 120 66 l105 63 455
1 c250 0 472 1 493 1 l37 1 0 880 c0 484 -3 880 -7 880 -5 -1 -134 -90 -288
-200z"/>
<path d="M3960 3062 c-20 -7 -594 -354 -600 -363 -3 -4 -5 -382 -5 -841 l0
-833 65 -7 c76 -8 355 -10 420 -3 25 3 68 7 95 10 83 9 175 25 270 47 94 21
353 104 370 118 6 5 10 198 9 542 l0 534 -79 104 c-380 503 -532 696 -545 692z"/>
<path d="M3035 2503 c-49 -30 -103 -61 -120 -69 -16 -7 -248 -146 -515 -307
l-485 -293 -3 -59 c-4 -67 3 -76 143 -194 192 -161 401 -288 650 -394 114 -48
371 -127 414 -127 15 0 16 74 16 744 0 410 -2 747 -5 749 -3 3 -45 -19 -95
-50z"/>
<path d="M1870 1544 c0 -5 38 -47 83 -94 150 -153 268 -254 412 -355 39 -27
72 -52 75 -55 3 -3 60 -38 126 -78 298 -177 661 -314 974 -367 19 -3 42 -8 50
-10 8 -2 40 -7 70 -10 30 -3 66 -8 80 -10 91 -14 443 -21 550 -11 166 17 249
27 320 41 300 60 518 134 785 267 89 44 253 138 280 160 6 5 44 32 85 60 92
63 261 200 255 206 -2 2 -213 4 -469 5 l-465 0 -73 -46 c-146 -90 -332 -179
-508 -242 -81 -28 -267 -81 -321 -90 -19 -3 -41 -8 -49 -10 -8 -2 -33 -7 -55
-10 -23 -3 -52 -7 -65 -10 -102 -20 -527 -28 -655 -12 -409 49 -776 178 -1110
389 -144 92 -302 212 -357 272 -10 10 -18 15 -18 10z"/>
</g>
</svg>
